<svg width="40" height="40" viewBox="0 0 40 40" fill="none" xmlns="http://www.w3.org/2000/svg">
<path d="M0 0H40V40H0V0Z" fill="#D8B38B"/>
<rect width="5" height="5" fill="#526200"/>
<rect y="5" width="5" height="5" fill="#465F00"/>
<rect y="10" width="5" height="5" fill="#394F00"/>
<rect y="15" width="5" height="5" fill="#375000"/>
<rect y="20" width="5" height="5" fill="#516500"/>
<rect x="5" y="20" width="5" height="5" fill="black"/>
<rect x="30" y="20" width="5" height="5" fill="black"/>
<rect y="25" width="5" height="5" fill="#476000"/>
<rect y="30" width="5" height="5" fill="#3F5400"/>
<rect x="5" y="30" width="5" height="5" fill="#D6A879"/>
<rect x="15" y="30" width="5" height="5" fill="#924D2B"/>
<rect x="20" y="30" width="5" height="5" fill="#924D2B"/>
<rect x="30" y="30" width="5" height="5" fill="#D6A879"/>
<rect y="35" width="5" height="5" fill="#516500"/>
<rect x="10" width="5" height="5" fill="#394F00"/>
<rect x="10" y="5" width="5" height="5" fill="#4A5E00"/>
<rect x="20" width="5" height="5" fill="#3E5700"/>
<rect x="30" width="5" height="5" fill="#334800"/>
<rect x="5" width="5" height="5" fill="#465F00"/>
<rect x="5" y="5" width="5" height="5" fill="#355000"/>
<rect x="5" y="10" width="5" height="5" fill="#4B5F00"/>
<rect x="15" width="5" height="5" fill="#465F00"/>
<rect x="35" width="5" height="5" fill="#394E00"/>
<rect x="35" y="5" width="5" height="5" fill="#374700"/>
</svg>
